# xmcd CD database file
#
# Track frame offsets:
#	150
#	17084
#	31352
#	50549
#	63224
#	72328
#	93079
#	115218
#	139756
#	152080
#	159741
#	176571
#	197100
#	213587
#	226586
#	239530
#	251710
#	263477
#	286535
#	304525
#	321075
#
# Disc length: 4427 seconds
#
# Revision: 2
# Processed by: cddbd v1.4b41PL1 Copyright (c) Steve Scherf et al.
# Submitted via: Feurio! 1.50.2ß - http://www.feurio.com
#
DISCID=1c114915
DTITLE=Various Artist - Kinky Beats
DYEAR=1900
DGENRE=
TTITLE0=Jacknife Lee - Here Kitty Kitty
TTITLE1=Jean Jacques Perrey - E.VA.
TTITLE2=First Born - The Mood Club
TTITLE3=I Beats and L´Armonica Di Franco Di Gemeni - Ciao Dal Murietto Alassio
TTITLE4=I Comenti - Zeus
TTITLE5=Soul Misson - Jackie in Action
TTITLE6=Michael Viner´s Incredible Bongo Band - Apache
TTITLE7=Resident Filters - Big Train
TTITLE8=Orchetsra Carlo Cordara - Tipsy
TTITLE9=I Marc 4 - Wonder
TTITLE10=Sunny Face - Sunny Cha Cha Cha
TTITLE11=Jadell - The Organisation
TTITLE12=Dj Fee - Southend Rock
TTITLE13=Birds 'n' Brass - Sort of soul
TTITLE14=Marcello Minerbi - Watermelon man
TTITLE15=Meri Saunders - My train
TTITLE16=Quincy Jones - Them from they call me Mister Tibbs
TTITLE17=Bobby Hughes Experience - Sahara 72
TTITLE18=Mint Royale - From Rusholme with love
TTITLE19=Lord Sitar - I can see for miles
TTITLE20=The Ray Macvay sound - Kinda Kinky
EXTD=
EXTT0=
EXTT1=
EXTT2=
EXTT3=
EXTT4=
EXTT5=
EXTT6=
EXTT7=
EXTT8=
EXTT9=
EXTT10=
EXTT11=
EXTT12=
EXTT13=
EXTT14=
EXTT15=
EXTT16=
EXTT17=
EXTT18=
EXTT19=
EXTT20=
PLAYORDER=
